# xmcd
#
# Track frame offsets:
#	150
#	15170
#	28235
#	41560
#	57437
#	71355
#	83897
#	94505
#	114002
#	125917
#	138122
#	150312
#	163132
#	174530
#	192452
#	206560
#	219040
#	235725
#
# Disc length: 3404 seconds
#
# Revision: 0
# Processed by: cddbd v1.4PL0 Copyright (c) Steve Scherf et al.
# Submitted via: dBpowerAMP V4.0
#
DISCID=e50d4a12
DTITLE=Johnnie Allan - From Louisiana to the Promised Land
DYEAR=1900
DGENRE=
TTITLE0=Rubber Dolly
TTITLE1=Family Rule
TTITLE2=What'cha Do
TTITLE3=Please Accept My Love
TTITLE4=Hippy Ti Yo
TTITLE5=Jolie Blon
TTITLE6=Sittin' and Thinkin'
TTITLE7=Your Picture
TTITLE8=I Cried
TTITLE9=Lonely Days, Lonely Nights
TTITLE10=Pardon Mr. Gordon
TTITLE11=Secret of Love
TTITLE12=South to Louisiana
TTITLE13=Mathilda
TTITLE14=Opelousas Sostan
TTITLE15=Sea of Love
TTITLE16=Promised Land
TTITLE17=Sweet Dream
EXTD=Recorded "Live" in London on 4th December, 1991
EXTT0=
EXTT1=
EXTT2=
EXTT3=
EXTT4=
EXTT5=
EXTT6=
EXTT7=
EXTT8=
EXTT9=
EXTT10=
EXTT11=
EXTT12=
EXTT13=
EXTT14=
EXTT15=
EXTT16=
EXTT17=
PLAYORDER=
